<mxfile host="app.diagrams.net" agent="Mozilla/5.0 (Windows NT 10.0; Win64; x64) AppleWebKit/537.36 (KHTML, like Gecko) Chrome/131.0.0.0 Safari/537.36" version="25.0.3">
  <diagram id="C5RBs43oDa-KdzZeNtuy" name="Page-1">
    <mxGraphModel dx="880" dy="434" grid="1" gridSize="10" guides="1" tooltips="1" connect="1" arrows="1" fold="1" page="1" pageScale="1" pageWidth="827" pageHeight="1169" math="0" shadow="0">
      <root>
        <mxCell id="WIyWlLk6GJQsqaUBKTNV-0" />
        <mxCell id="WIyWlLk6GJQsqaUBKTNV-1" parent="WIyWlLk6GJQsqaUBKTNV-0" />
        <mxCell id="FH6qivDyfMdN8UB7JAMf-0" value="Start" style="ellipse;whiteSpace=wrap;html=1;" parent="WIyWlLk6GJQsqaUBKTNV-1" vertex="1">
          <mxGeometry x="213" y="160" width="80" height="80" as="geometry" />
        </mxCell>
        <mxCell id="FH6qivDyfMdN8UB7JAMf-11" style="edgeStyle=orthogonalEdgeStyle;rounded=0;orthogonalLoop=1;jettySize=auto;html=1;exitX=0.5;exitY=1;exitDx=0;exitDy=0;entryX=0.5;entryY=0;entryDx=0;entryDy=0;" parent="WIyWlLk6GJQsqaUBKTNV-1" source="FH6qivDyfMdN8UB7JAMf-1" target="FH6qivDyfMdN8UB7JAMf-2" edge="1">
          <mxGeometry relative="1" as="geometry" />
        </mxCell>
        <mxCell id="FH6qivDyfMdN8UB7JAMf-1" value="Initialization&lt;div&gt;Use serial&lt;/div&gt;&lt;div&gt;I2C&lt;/div&gt;" style="shape=parallelogram;perimeter=parallelogramPerimeter;whiteSpace=wrap;html=1;fixedSize=1;" parent="WIyWlLk6GJQsqaUBKTNV-1" vertex="1">
          <mxGeometry x="193" y="280" width="120" height="80" as="geometry" />
        </mxCell>
        <mxCell id="FH6qivDyfMdN8UB7JAMf-12" style="edgeStyle=orthogonalEdgeStyle;rounded=0;orthogonalLoop=1;jettySize=auto;html=1;exitX=0;exitY=0.5;exitDx=0;exitDy=0;entryX=0;entryY=0.5;entryDx=0;entryDy=0;" parent="WIyWlLk6GJQsqaUBKTNV-1" source="FH6qivDyfMdN8UB7JAMf-2" target="FH6qivDyfMdN8UB7JAMf-3" edge="1">
          <mxGeometry relative="1" as="geometry">
            <mxPoint x="173" y="560" as="targetPoint" />
            <Array as="points">
              <mxPoint x="173" y="440" />
              <mxPoint x="173" y="560" />
            </Array>
          </mxGeometry>
        </mxCell>
        <mxCell id="FH6qivDyfMdN8UB7JAMf-16" style="edgeStyle=orthogonalEdgeStyle;rounded=0;orthogonalLoop=1;jettySize=auto;html=1;exitX=1;exitY=0.5;exitDx=0;exitDy=0;" parent="WIyWlLk6GJQsqaUBKTNV-1" source="FH6qivDyfMdN8UB7JAMf-2" target="FH6qivDyfMdN8UB7JAMf-2" edge="1">
          <mxGeometry relative="1" as="geometry">
            <mxPoint x="333" y="480" as="targetPoint" />
          </mxGeometry>
        </mxCell>
        <mxCell id="FH6qivDyfMdN8UB7JAMf-2" value="Serial data" style="rhombus;whiteSpace=wrap;html=1;" parent="WIyWlLk6GJQsqaUBKTNV-1" vertex="1">
          <mxGeometry x="193" y="400" width="120" height="80" as="geometry" />
        </mxCell>
        <mxCell id="FH6qivDyfMdN8UB7JAMf-13" style="edgeStyle=orthogonalEdgeStyle;rounded=0;orthogonalLoop=1;jettySize=auto;html=1;exitX=1;exitY=0.5;exitDx=0;exitDy=0;entryX=0;entryY=0.5;entryDx=0;entryDy=0;" parent="WIyWlLk6GJQsqaUBKTNV-1" source="FH6qivDyfMdN8UB7JAMf-3" target="FH6qivDyfMdN8UB7JAMf-4" edge="1">
          <mxGeometry relative="1" as="geometry" />
        </mxCell>
        <mxCell id="FH6qivDyfMdN8UB7JAMf-3" value="Check data&lt;div&gt;Set up I2C data&lt;/div&gt;" style="shape=parallelogram;perimeter=parallelogramPerimeter;whiteSpace=wrap;html=1;fixedSize=1;" parent="WIyWlLk6GJQsqaUBKTNV-1" vertex="1">
          <mxGeometry x="193" y="520" width="120" height="80" as="geometry" />
        </mxCell>
        <mxCell id="FH6qivDyfMdN8UB7JAMf-14" style="edgeStyle=orthogonalEdgeStyle;rounded=0;orthogonalLoop=1;jettySize=auto;html=1;exitX=1;exitY=0.5;exitDx=0;exitDy=0;entryX=0;entryY=0.5;entryDx=0;entryDy=0;" parent="WIyWlLk6GJQsqaUBKTNV-1" source="FH6qivDyfMdN8UB7JAMf-4" target="FH6qivDyfMdN8UB7JAMf-5" edge="1">
          <mxGeometry relative="1" as="geometry" />
        </mxCell>
        <mxCell id="FH6qivDyfMdN8UB7JAMf-4" value="Traffer I2C data" style="rounded=1;whiteSpace=wrap;html=1;" parent="WIyWlLk6GJQsqaUBKTNV-1" vertex="1">
          <mxGeometry x="373" y="520" width="120" height="80" as="geometry" />
        </mxCell>
        <mxCell id="FH6qivDyfMdN8UB7JAMf-19" style="edgeStyle=orthogonalEdgeStyle;rounded=0;orthogonalLoop=1;jettySize=auto;html=1;exitX=0.5;exitY=0;exitDx=0;exitDy=0;entryX=0.5;entryY=1;entryDx=0;entryDy=0;" parent="WIyWlLk6GJQsqaUBKTNV-1" source="FH6qivDyfMdN8UB7JAMf-5" target="FH6qivDyfMdN8UB7JAMf-6" edge="1">
          <mxGeometry relative="1" as="geometry" />
        </mxCell>
        <mxCell id="FH6qivDyfMdN8UB7JAMf-5" value="Interrupt" style="rhombus;whiteSpace=wrap;html=1;" parent="WIyWlLk6GJQsqaUBKTNV-1" vertex="1">
          <mxGeometry x="533" y="520" width="120" height="80" as="geometry" />
        </mxCell>
        <mxCell id="FH6qivDyfMdN8UB7JAMf-18" style="edgeStyle=orthogonalEdgeStyle;rounded=0;orthogonalLoop=1;jettySize=auto;html=1;exitX=0.5;exitY=0;exitDx=0;exitDy=0;entryX=0.5;entryY=1;entryDx=0;entryDy=0;" parent="WIyWlLk6GJQsqaUBKTNV-1" source="FH6qivDyfMdN8UB7JAMf-6" target="FH6qivDyfMdN8UB7JAMf-8" edge="1">
          <mxGeometry relative="1" as="geometry" />
        </mxCell>
        <mxCell id="FH6qivDyfMdN8UB7JAMf-6" value="Read data&lt;div&gt;Calculate speed&lt;/div&gt;" style="rounded=1;whiteSpace=wrap;html=1;" parent="WIyWlLk6GJQsqaUBKTNV-1" vertex="1">
          <mxGeometry x="533" y="400" width="120" height="80" as="geometry" />
        </mxCell>
        <mxCell id="FH6qivDyfMdN8UB7JAMf-17" style="edgeStyle=orthogonalEdgeStyle;rounded=0;orthogonalLoop=1;jettySize=auto;html=1;exitX=0;exitY=0.5;exitDx=0;exitDy=0;" parent="WIyWlLk6GJQsqaUBKTNV-1" source="FH6qivDyfMdN8UB7JAMf-8" target="FH6qivDyfMdN8UB7JAMf-9" edge="1">
          <mxGeometry relative="1" as="geometry" />
        </mxCell>
        <mxCell id="FH6qivDyfMdN8UB7JAMf-21" style="edgeStyle=orthogonalEdgeStyle;rounded=0;orthogonalLoop=1;jettySize=auto;html=1;exitX=0.5;exitY=0;exitDx=0;exitDy=0;entryX=0.5;entryY=1;entryDx=0;entryDy=0;" parent="WIyWlLk6GJQsqaUBKTNV-1" source="FH6qivDyfMdN8UB7JAMf-8" target="FH6qivDyfMdN8UB7JAMf-20" edge="1">
          <mxGeometry relative="1" as="geometry" />
        </mxCell>
        <mxCell id="FH6qivDyfMdN8UB7JAMf-8" value="Match Serial&lt;div&gt;Data?&lt;/div&gt;" style="rhombus;whiteSpace=wrap;html=1;" parent="WIyWlLk6GJQsqaUBKTNV-1" vertex="1">
          <mxGeometry x="533" y="280" width="120" height="80" as="geometry" />
        </mxCell>
        <mxCell id="FH6qivDyfMdN8UB7JAMf-9" value="Recalibrate&lt;div&gt;I2C data&amp;nbsp;&lt;/div&gt;" style="rounded=1;whiteSpace=wrap;html=1;" parent="WIyWlLk6GJQsqaUBKTNV-1" vertex="1">
          <mxGeometry x="373" y="280" width="120" height="80" as="geometry" />
        </mxCell>
        <mxCell id="FH6qivDyfMdN8UB7JAMf-10" value="" style="endArrow=classic;html=1;rounded=0;exitX=0.5;exitY=1;exitDx=0;exitDy=0;entryX=0.5;entryY=0;entryDx=0;entryDy=0;" parent="WIyWlLk6GJQsqaUBKTNV-1" source="FH6qivDyfMdN8UB7JAMf-0" target="FH6qivDyfMdN8UB7JAMf-1" edge="1">
          <mxGeometry width="50" height="50" relative="1" as="geometry">
            <mxPoint x="373" y="420" as="sourcePoint" />
            <mxPoint x="423" y="370" as="targetPoint" />
          </mxGeometry>
        </mxCell>
        <mxCell id="FH6qivDyfMdN8UB7JAMf-22" style="edgeStyle=orthogonalEdgeStyle;rounded=0;orthogonalLoop=1;jettySize=auto;html=1;exitX=0;exitY=0.5;exitDx=0;exitDy=0;entryX=1;entryY=0.5;entryDx=0;entryDy=0;" parent="WIyWlLk6GJQsqaUBKTNV-1" source="FH6qivDyfMdN8UB7JAMf-20" target="FH6qivDyfMdN8UB7JAMf-1" edge="1">
          <mxGeometry relative="1" as="geometry">
            <mxPoint x="333" y="330" as="targetPoint" />
            <Array as="points">
              <mxPoint x="343" y="200" />
              <mxPoint x="343" y="320" />
            </Array>
          </mxGeometry>
        </mxCell>
        <mxCell id="FH6qivDyfMdN8UB7JAMf-20" value="Delay&lt;div&gt;I2C bus close&lt;/div&gt;" style="shape=parallelogram;perimeter=parallelogramPerimeter;whiteSpace=wrap;html=1;fixedSize=1;" parent="WIyWlLk6GJQsqaUBKTNV-1" vertex="1">
          <mxGeometry x="533" y="160" width="120" height="80" as="geometry" />
        </mxCell>
        <mxCell id="FH6qivDyfMdN8UB7JAMf-23" value="" style="endArrow=classic;html=1;rounded=0;entryX=0.5;entryY=0;entryDx=0;entryDy=0;exitX=0.5;exitY=1;exitDx=0;exitDy=0;" parent="WIyWlLk6GJQsqaUBKTNV-1" source="FH6qivDyfMdN8UB7JAMf-9" target="FH6qivDyfMdN8UB7JAMf-4" edge="1">
          <mxGeometry width="50" height="50" relative="1" as="geometry">
            <mxPoint x="423" y="430" as="sourcePoint" />
            <mxPoint x="473" y="360" as="targetPoint" />
          </mxGeometry>
        </mxCell>
        <mxCell id="MzS--jvQfeMBCeaEQOcG-0" value="No" style="text;html=1;align=center;verticalAlign=middle;whiteSpace=wrap;rounded=0;" vertex="1" parent="WIyWlLk6GJQsqaUBKTNV-1">
          <mxGeometry x="270" y="470" width="60" height="30" as="geometry" />
        </mxCell>
        <mxCell id="MzS--jvQfeMBCeaEQOcG-1" style="edgeStyle=orthogonalEdgeStyle;rounded=0;orthogonalLoop=1;jettySize=auto;html=1;exitX=1;exitY=0.5;exitDx=0;exitDy=0;entryX=0.5;entryY=1;entryDx=0;entryDy=0;" edge="1" parent="WIyWlLk6GJQsqaUBKTNV-1" source="FH6qivDyfMdN8UB7JAMf-5" target="FH6qivDyfMdN8UB7JAMf-5">
          <mxGeometry relative="1" as="geometry" />
        </mxCell>
        <mxCell id="MzS--jvQfeMBCeaEQOcG-2" value="No" style="text;html=1;align=center;verticalAlign=middle;whiteSpace=wrap;rounded=0;" vertex="1" parent="WIyWlLk6GJQsqaUBKTNV-1">
          <mxGeometry x="610" y="590" width="60" height="30" as="geometry" />
        </mxCell>
        <mxCell id="MzS--jvQfeMBCeaEQOcG-3" value="Yes" style="text;html=1;align=center;verticalAlign=middle;whiteSpace=wrap;rounded=0;rotation=0;" vertex="1" parent="WIyWlLk6GJQsqaUBKTNV-1">
          <mxGeometry x="140" y="560" width="60" height="30" as="geometry" />
        </mxCell>
        <mxCell id="MzS--jvQfeMBCeaEQOcG-4" value="Yes" style="text;html=1;align=center;verticalAlign=middle;whiteSpace=wrap;rounded=0;rotation=0;" vertex="1" parent="WIyWlLk6GJQsqaUBKTNV-1">
          <mxGeometry x="550" y="490" width="60" height="30" as="geometry" />
        </mxCell>
        <mxCell id="MzS--jvQfeMBCeaEQOcG-5" value="Yes" style="text;html=1;align=center;verticalAlign=middle;whiteSpace=wrap;rounded=0;rotation=0;" vertex="1" parent="WIyWlLk6GJQsqaUBKTNV-1">
          <mxGeometry x="593" y="250" width="60" height="30" as="geometry" />
        </mxCell>
        <mxCell id="MzS--jvQfeMBCeaEQOcG-6" value="No" style="text;html=1;align=center;verticalAlign=middle;whiteSpace=wrap;rounded=0;" vertex="1" parent="WIyWlLk6GJQsqaUBKTNV-1">
          <mxGeometry x="493" y="320" width="60" height="30" as="geometry" />
        </mxCell>
      </root>
    </mxGraphModel>
  </diagram>
</mxfile>
